<?xml version="1.0" standalone="no"?>
<!DOCTYPE svg PUBLIC "-//W3C//DTD SVG 1.1//EN" "http://www.w3.org/Graphics/SVG/1.1/DTD/svg11.dtd" >
<svg xmlns="http://www.w3.org/2000/svg" xmlns:xlink="http://www.w3.org/1999/xlink" version="1.1">
<metadata></metadata>
<defs>
<font id="starkillerregular" horiz-adv-x="1700" >
<font-face units-per-em="2048" ascent="1638" descent="-410" />
<missing-glyph horiz-adv-x="837" />
<glyph unicode="&#xd;" horiz-adv-x="508" />
<glyph horiz-adv-x="0" />
<glyph horiz-adv-x="0" />
<glyph unicode=" "  horiz-adv-x="837" />
<glyph unicode="&#x09;" horiz-adv-x="837" />
<glyph unicode="&#xa0;" horiz-adv-x="837" />
<glyph unicode="!" horiz-adv-x="650" d="M0 0v400h500v-400h-500zM0 550v950h500v-950h-500z" />
<glyph unicode="&#x22;" horiz-adv-x="1250" d="M0 700v800h500v-400q0 -166 -146.5 -283t-353.5 -117zM600 700v800h500v-400q0 -166 -146.5 -283t-353.5 -117z" />
<glyph unicode="#" horiz-adv-x="1600" d="M0 350v300h150v200h-150v300h150v150h500v-150h150v150h500v-150h150v-300h-150v-200h150v-300h-150v-150h-500v150h-150v-150h-500v150h-150zM650 650h150v200h-150v-200z" />
<glyph unicode="$" d="M0 0v400h950q41 0 70.5 29.5t29.5 70.5t-29.5 70.5t-70.5 29.5h-500q-186 0 -318 132t-132 318t132 318t318 132h75v200h500v-200h525v-400h-950q-41 0 -70.5 -29.5t-29.5 -70.5t29.5 -70.5t70.5 -29.5h500q186 0 318 -132t132 -318t-132 -318t-318 -132h-75v-200h-500 v200h-525z" />
<glyph unicode="%" horiz-adv-x="2000" d="M0 950q0 228 175.5 389t424.5 161q239 0 411 -149l89 149h550l-250 -416q155 -35 275 -145q175 -161 175 -389t-175.5 -389t-424.5 -161q-239 0 -411 149l-89 -149h-550l250 416q-155 35 -274 145q-176 161 -176 389zM500 950q0 -62 29.5 -106t70.5 -44t70.5 44t29.5 106 t-29.5 106t-70.5 44t-70.5 -44t-29.5 -106zM1150 550q0 -62 29.5 -106t70.5 -44t70.5 44t29.5 106t-29.5 106t-70.5 44t-70.5 -44t-29.5 -106z" />
<glyph unicode="&#x26;" d="M0 400h2q-2 24 -2 50q0 173 115 300q-115 127 -115 300q0 26 2 50h-2l3 2q16 153 129 266q132 132 318 132h300v-400h-150q-41 0 -70.5 -29.5t-29.5 -70.5t29.5 -70.5t70.5 -29.5h250v200h500v-700h200v-400h-1100q-186 0 -318 132q-113 113 -129 266zM500 500 q0 -41 29.5 -70.5t70.5 -29.5h250v200h-250q-41 0 -70.5 -29.5t-29.5 -70.5z" />
<glyph unicode="'" horiz-adv-x="650" d="M0 700v800h500v-400q0 -166 -146.5 -283t-353.5 -117z" />
<glyph unicode="(" horiz-adv-x="1100" d="M0 550l1 400q0 311 227 530.5t548 219.5h174v-400h-174q-114 0 -194.5 -102.5t-81.5 -247.5v-400q0 -145 80.5 -247.5t194.5 -102.5h175v-400h-175q-321 0 -548 219.5t-227 530.5z" />
<glyph unicode=")" horiz-adv-x="1100" d="M0 -200l1 400h174q114 0 194.5 102.5t80.5 247.5v400q-1 145 -81.5 247.5t-194.5 102.5h-174v400h174q321 0 548 -219.5t228 -530.5v-400q0 -311 -227 -530.5t-548 -219.5h-175z" />
<glyph unicode="*" horiz-adv-x="1450" d="M4 1098l155 475l243 -79v256h500v-256l243 79l155 -475l-243 -79l150 -207l-405 -294l-150 207l-150 -207l-405 294l150 207z" />
<glyph unicode="+" horiz-adv-x="1616" d="M0 558v372h511v372h465v-372h511v-372h-511v-372h-465v372h-511z" />
<glyph unicode="," horiz-adv-x="650" d="M0 400h500v-400q0 -166 -146.5 -283t-353.5 -117v800z" />
<glyph unicode="-" horiz-adv-x="1500" d="M0 600v300h1350v-300h-1350z" />
<glyph unicode="." horiz-adv-x="650" d="M0 0v400h500v-400h-500z" />
<glyph unicode="/" horiz-adv-x="1600" d="M0 0l900 1500h550l-900 -1500h-550z" />
<glyph unicode="0" d="M0 750q0 311 227 530.5t548 219.5t548 -219.5t227 -530.5t-227 -530.5t-548 -219.5t-548 219.5t-227 530.5zM500 750q0 -145 80.5 -247.5t194.5 -102.5t194.5 102.5t80.5 247.5t-80.5 247.5t-194.5 102.5t-194.5 -102.5t-80.5 -247.5z" />
<glyph unicode="1" horiz-adv-x="850" d="M0 1100v400h700v-1500h-500v1100h-200z" />
<glyph unicode="2" d="M0 0v450q0 186 132 318t318 132h500q41 0 70.5 29.5t29.5 70.5t-29.5 70.5t-70.5 29.5h-850v400h1000q186 0 318 -132t132 -318t-132 -318t-318 -132h-500q-41 0 -70.5 -29.5t-29.5 -70.5v-100h1050v-400h-1550z" />
<glyph unicode="3" d="M0 0v400h950q41 0 70.5 29.5t29.5 70.5t-29.5 70.5t-70.5 29.5h-700v300h700q41 0 70.5 29.5t29.5 70.5t-29.5 70.5t-70.5 29.5h-950v400h1100q186 0 318 -132q113 -113 129 -266l3 -2h-2q2 -24 2 -50q0 -173 -115 -300q115 -127 115 -300q0 -26 -2 -50h2l-3 -2 q-16 -153 -129 -266q-132 -132 -318 -132h-1100z" />
<glyph unicode="4" d="M0 450v1050h500v-750h450v750h450v-750h150v-300h-150v-450h-450v450h-950z" />
<glyph unicode="5" d="M0 0v400h950q41 0 70.5 29.5t29.5 70.5t-29.5 70.5t-70.5 29.5h-950v900h1550v-400h-1050v-200h600q186 0 318 -132t132 -318t-132 -318t-318 -132h-1100z" />
<glyph unicode="6" d="M0 400v650q0 186 132 318t318 132h900v-400h-750q-41 0 -70.5 -29.5t-29.5 -70.5v-100h600q186 0 318 -132t132 -318t-132 -318t-318 -132h-650q-186 0 -318 132q-113 113 -129 266zM500 500q0 -41 29.5 -70.5t70.5 -29.5h350q41 0 70.5 29.5t29.5 70.5t-29.5 70.5 t-70.5 29.5h-450v-100z" />
<glyph unicode="7" d="M0 0l696 1100h-696v400h1550l-948 -1500l-1 -1z" />
<glyph unicode="8" d="M0 400h2q-2 24 -2 50q0 173 115 300q-115 127 -115 300q0 26 2 50h-2l3 2q16 153 129 266q132 132 318 132h650q186 0 318 -132q113 -113 129 -266l3 -2h-2q2 -24 2 -50q0 -173 -115 -300q115 -127 115 -300q0 -26 -2 -50h2l-3 -2q-16 -153 -129 -266 q-132 -132 -318 -132h-650q-186 0 -318 132q-113 113 -129 266zM500 500q0 -41 29.5 -70.5t70.5 -29.5h350q41 0 70.5 29.5t29.5 70.5t-29.5 70.5t-70.5 29.5h-350q-41 0 -70.5 -29.5t-29.5 -70.5zM500 1000q0 -41 29.5 -70.5t70.5 -29.5h350q41 0 70.5 29.5t29.5 70.5 t-29.5 70.5t-70.5 29.5h-350q-41 0 -70.5 -29.5t-29.5 -70.5z" />
<glyph unicode="9" d="M0 1050q0 186 132 318t318 132h650q186 0 318 -132q113 -113 129 -266l3 -2v-650q0 -186 -132 -318t-318 -132h-900v400h750q41 0 70.5 29.5t29.5 70.5v100h-600q-186 0 -318 132t-132 318zM500 1000q0 -41 29.5 -70.5t70.5 -29.5h450v100q0 41 -29.5 70.5t-70.5 29.5 h-350q-41 0 -70.5 -29.5t-29.5 -70.5z" />
<glyph unicode=":" horiz-adv-x="650" d="M0 0v400h500v-400h-500zM0 550v400h500v-400h-500z" />
<glyph unicode=";" horiz-adv-x="650" d="M0 400h500v-400q0 -166 -146.5 -283t-353.5 -117v800zM0 550v400h500v-400h-500z" />
<glyph unicode="&#x3c;" horiz-adv-x="1250" d="M0 751l499 750h601l-498 -750l498 -750l-601 -1z" />
<glyph unicode="=" horiz-adv-x="1500" d="M0 350v300h1350v-300h-1350zM0 850v300h1350v-300h-1350z" />
<glyph unicode="&#x3e;" horiz-adv-x="1250" d="M0 1l498 750l-498 750h601l499 -750l-499 -751z" />
<glyph unicode="?" horiz-adv-x="1600" d="M0 1100v400h1000q186 0 318 -132t132 -318t-132 -318t-318 -132h-200q-50 0 -50 -50h-500v50q0 150 107 225t293 75h200q41 0 70.5 29.5t29.5 70.5t-29.5 70.5t-70.5 29.5h-850zM250 0v400h500v-400h-500z" />
<glyph unicode="@" horiz-adv-x="1643" d="M0 744q0 281 231 512t513 231h186q335 0 485 -222q72 -106 72 -243q0 -156 -93 -272q-88 -111 -241 -160q-101 -32 -223 -32h-186v372q25 0 76 -2t76 -2q170 0 171 82q0 60 -90 89q-62 19 -140 19h-93q-93 0 -183 -58q-83 -53 -136 -138t-53 -176q0 -196 194 -318 q86 -54 178 -54h743v-372h-743q-281 0 -512.5 231.5t-231.5 512.5z" />
<glyph unicode="A" d="M0 0l400 1500h750l400 -1500h-525l-80 300h-340l-80 -300h-525zM685 600h180l-90 338z" />
<glyph unicode="B" d="M0 0v1500h1100q186 0 318 -132q113 -113 129 -266l3 -2h-2q2 -24 2 -50q0 -173 -115 -300q115 -127 115 -300q0 -26 -2 -50h2l-3 -2q-16 -153 -129 -266q-132 -132 -318 -132h-1100zM500 400h450q41 0 70.5 29.5t29.5 70.5t-29.5 70.5t-70.5 29.5h-450v-200zM500 900h450 q41 0 70.5 29.5t29.5 70.5t-29.5 70.5t-70.5 29.5h-450v-200z" />
<glyph unicode="C" horiz-adv-x="1500" d="M0 750q0 311 227 530.5t548 219.5h574v-400h-574q-114 0 -194.5 -102.5t-80.5 -247.5t80.5 -247.5t194.5 -102.5h725v-400h-725q-321 0 -548 219.5t-227 530.5z" />
<glyph unicode="D" d="M0 0l1 1500h774q321 0 548 -219.5t227 -530.5t-227 -530.5t-548 -219.5h-775zM500 400h275q114 0 194.5 102.5t80.5 247.5t-80.5 247.5t-194.5 102.5h-275v-700z" />
<glyph unicode="E" d="M0 0v1500h1550v-400h-1050v-200h600v-300h-600v-200h1200v-400h-1700z" />
<glyph unicode="F" d="M0 0v1500h1550v-400h-1050v-200h600v-300h-600v-600h-500z" />
<glyph unicode="G" horiz-adv-x="1600" d="M0 750q0 311 227 530.5t548 219.5h574v-400h-574q-114 0 -194.5 -102.5t-80.5 -247.5t80.5 -247.5t194.5 -102.5h175v450h500v-850h-675q-321 0 -548 219.5t-227 530.5z" />
<glyph unicode="H" d="M0 0v1500h500v-600h550v600h500v-1500h-500v600h-550v-600h-500z" />
<glyph unicode="I" horiz-adv-x="1450" d="M0 0v400h400v700h-400v400h1300v-400h-400v-700h400v-400h-1300z" />
<glyph unicode="J" horiz-adv-x="1150" d="M0 0v400l225 1q114 0 194.5 102.5t80.5 247.5v749l500 1v-750q0 -311 -227 -530.5t-548 -219.5z" />
<glyph unicode="K" d="M0 0v1500h500v-650l550 650h500l-3 -3h3l-15 -15l-624 -743q26 -126 114 -213q125 -125 250 -125l425 -1v-400l-425 1q-321 0 -548 220q-74 71 -124 152l-103 -123v-250h-500z" />
<glyph unicode="L" horiz-adv-x="1500" d="M0 0v1500h500v-1100h850v-400h-1350z" />
<glyph unicode="M" horiz-adv-x="1850" d="M0 0v1500h550l300 -500l300 500h550v-1500h-500v618l-350 -618l-350 618v-618h-500z" />
<glyph unicode="N" d="M0 0v1500h600l450 -750v750h500v-1500h-600l-450 750v-750h-500z" />
<glyph unicode="O" d="M0 750q0 311 227 530.5t548 219.5t548 -219.5t227 -530.5t-227 -530.5t-548 -219.5t-548 219.5t-227 530.5zM500 750q0 -145 80.5 -247.5t194.5 -102.5t194.5 102.5t80.5 247.5t-80.5 247.5t-194.5 102.5t-194.5 -102.5t-80.5 -247.5z" />
<glyph unicode="P" d="M0 0v1500h1000q228 0 389 -161t161 -389t-161 -389t-389 -161h-500v-400h-500zM500 800h400q62 0 106 44t44 106t-44 106t-106 44h-400v-300z" />
<glyph unicode="Q" d="M0 750q0 311 227 530.5t548 219.5t548 -219.5t227 -530.5q0 -192 -87 -350h237v-400l-425 1q-132 0 -248 37q-118 -38 -252 -38q-321 0 -548 219.5t-227 530.5zM500 751h500q0 -81 25 -149q25 67 25 148q0 145 -80.5 247.5t-194.5 102.5t-194 -102q-81 -103 -81 -247z " />
<glyph unicode="R" d="M0 0v1500h1000q228 0 389 -161t161 -389t-161 -389q-97 -97 -218 -135q48 -25 104 -25l425 -1v-400l-425 1q-321 0 -548 220q-86 83 -139 179h-88v-400h-500zM500 800h400q62 0 106 44t44 106t-44 106t-106 44h-400v-300z" />
<glyph unicode="S" horiz-adv-x="1500" d="M0 0v400h600q50 0 50 49l-449 401q-101 120 -101 275t110 265t265 110q13 0 25 -1v1h1000v-400h-750q-50 0 -50 -50l450 -400q100 -120 100 -275t-110 -265q-101 -101 -240 -109v-1h-900z" />
<glyph unicode="T" horiz-adv-x="1650" d="M0 1100v400h1650v-400h-650v-1100h-500v1100h-500z" />
<glyph unicode="U" d="M0 750v751l500 -1v-750q0 -145 80.5 -247.5t194.5 -102.5t194.5 102.5t80.5 247.5l-1 750h501v-750q0 -311 -227 -530.5t-548 -219.5t-548 219.5t-227 530.5z" />
<glyph unicode="V" d="M0 1500h525l250 -937l250 937h525l-400 -1500h-750z" />
<glyph unicode="W" horiz-adv-x="2750" d="M0 1500h525l250 -937l250 937h550l250 -937l250 937h525l-400 -1500h-750l-150 563l-150 -563h-750z" />
<glyph unicode="X" d="M0 0l474 750l-474 750h601l174 -275l174 275h601l-474 -750l474 -750l-601 -1l-174 275l-174 -275z" />
<glyph unicode="Y" d="M0 1500h601l174 -275l174 275h601l-474 -750l-51 -81v-669h-500v669l-51 81z" />
<glyph unicode="Z" d="M0 0l696 1100h-696v400h1550l-695 -1100h845v-400h-1700z" />
<glyph unicode="[" horiz-adv-x="1100" d="M0 -200v1900h950v-400h-450v-1100h450v-400h-950z" />
<glyph unicode="\" horiz-adv-x="1600" d="M0 1500h550l900 -1500h-550z" />
<glyph unicode="]" horiz-adv-x="1100" d="M0 -200l1 400h449v1100h-450v400h950v-1900h-950z" />
<glyph unicode="^" horiz-adv-x="1450" d="M0 1650l350 600h600l350 -600h-500l-150 257l-150 -257h-500z" />
<glyph unicode="_" horiz-adv-x="1500" d="M0 -150h1350v-300h-1350v300z" />
<glyph unicode="`" horiz-adv-x="1450" d="M0 2250h800l500 -600h-500z" />
<glyph unicode="a" d="M0 0l400 1500h750l400 -1500h-525l-80 300h-340l-80 -300h-525zM685 600h180l-90 338z" />
<glyph unicode="b" d="M0 0v1500h1100q186 0 318 -132q113 -113 129 -266l3 -2h-2q2 -24 2 -50q0 -173 -115 -300q115 -127 115 -300q0 -26 -2 -50h2l-3 -2q-16 -153 -129 -266q-132 -132 -318 -132h-1100zM500 400h450q41 0 70.5 29.5t29.5 70.5t-29.5 70.5t-70.5 29.5h-450v-200zM500 900h450 q41 0 70.5 29.5t29.5 70.5t-29.5 70.5t-70.5 29.5h-450v-200z" />
<glyph unicode="c" horiz-adv-x="1500" d="M0 750q0 311 227 530.5t548 219.5h574v-400h-574q-114 0 -194.5 -102.5t-80.5 -247.5t80.5 -247.5t194.5 -102.5h575v-400h-575q-321 0 -548 219.5t-227 530.5z" />
<glyph unicode="d" d="M0 0l1 1500h774q321 0 548 -219.5t227 -530.5t-227 -530.5t-548 -219.5h-775zM500 400h275q114 0 194.5 102.5t80.5 247.5t-80.5 247.5t-194.5 102.5h-275v-700z" />
<glyph unicode="e" d="M0 0v1500h1550v-400h-1050v-200h600v-300h-600v-200h1050v-400h-1550z" />
<glyph unicode="f" d="M0 0v1500h1550v-400h-1050v-200h600v-300h-600v-600h-500z" />
<glyph unicode="g" horiz-adv-x="1600" d="M0 750q0 311 227 530.5t548 219.5h574v-400h-574q-114 0 -194.5 -102.5t-80.5 -247.5t80.5 -247.5t194.5 -102.5h175v450h500v-850h-675q-321 0 -548 219.5t-227 530.5z" />
<glyph unicode="h" d="M0 0v1500h500v-600h550v600h500v-1500h-500v600h-550v-600h-500z" />
<glyph unicode="i" horiz-adv-x="1450" d="M0 0v400h400v700h-400v400h1300v-400h-400v-700h400v-400h-1300z" />
<glyph unicode="j" horiz-adv-x="1150" d="M0 0v400l225 1q114 0 194.5 102.5t80.5 247.5v749l500 1v-750q0 -311 -227 -530.5t-548 -219.5z" />
<glyph unicode="k" d="M0 0v1500h500v-650l550 650h500l-3 -3h3l-15 -15l-624 -743q26 -126 114 -213q125 -125 250 -125l324 -1v-400l-324 1q-321 0 -548 220q-74 71 -124 152l-103 -123v-250h-500z" />
<glyph unicode="l" horiz-adv-x="1500" d="M0 0v1500h500v-1100h850v-400h-1350z" />
<glyph unicode="m" horiz-adv-x="1850" d="M0 0v1500h550l300 -500l300 500h550v-1500h-500v618l-350 -618l-350 618v-618h-500z" />
<glyph unicode="n" d="M0 0v1500h600l450 -750v750h500v-1500h-600l-450 750v-750h-500z" />
<glyph unicode="o" d="M0 750q0 311 227 530.5t548 219.5t548 -219.5t227 -530.5t-227 -530.5t-548 -219.5t-548 219.5t-227 530.5zM500 750q0 -145 80.5 -247.5t194.5 -102.5t194.5 102.5t80.5 247.5t-80.5 247.5t-194.5 102.5t-194.5 -102.5t-80.5 -247.5z" />
<glyph unicode="p" d="M0 0v1500h1000q228 0 389 -161t161 -389t-161 -389t-389 -161h-500v-400h-500zM500 800h400q62 0 106 44t44 106t-44 106t-106 44h-400v-300z" />
<glyph unicode="q" d="M0 750q0 311 227 530.5t548 219.5t548 -219.5t227 -530.5q0 -192 -87 -350h136v-400l-324 1q-132 0 -248 37q-118 -38 -252 -38q-321 0 -548 219.5t-227 530.5zM500 751h500q0 -81 25 -149q25 67 25 148q0 145 -80.5 247.5t-194.5 102.5t-194 -102q-81 -103 -81 -247z " />
<glyph unicode="r" d="M0 0v1500h1000q228 0 389 -161t161 -389t-161 -389q-97 -97 -218 -135q48 -25 104 -25l324 -1v-400l-324 1q-321 0 -548 220q-86 83 -139 179h-88v-400h-500zM500 800h400q62 0 106 44t44 106t-44 106t-106 44h-400v-300z" />
<glyph unicode="s" horiz-adv-x="1500" d="M0 0v400h600q50 0 50 49l-449 401q-101 120 -101 275t110 265t265 110q13 0 25 -1v1h850v-400h-600q-50 0 -50 -50l450 -400q100 -120 100 -275t-110 -265q-101 -101 -240 -109v-1h-900z" />
<glyph unicode="t" horiz-adv-x="1650" d="M0 1100v400h1500v-400h-500v-1100h-500v1100h-500z" />
<glyph unicode="u" d="M0 750v751l500 -1v-750q0 -145 80.5 -247.5t194.5 -102.5t194.5 102.5t80.5 247.5l-1 750h501v-750q0 -311 -227 -530.5t-548 -219.5t-548 219.5t-227 530.5z" />
<glyph unicode="v" d="M0 1500h525l250 -937l250 937h525l-400 -1500h-750z" />
<glyph unicode="w" horiz-adv-x="2750" d="M0 1500h525l250 -937l250 937h550l250 -937l250 937h525l-400 -1500h-750l-150 563l-150 -563h-750z" />
<glyph unicode="x" d="M0 0l474 750l-474 750h601l174 -275l174 275h601l-474 -750l474 -750l-601 -1l-174 275l-174 -275z" />
<glyph unicode="y" d="M0 1500h601l174 -275l174 275h601l-474 -750l-51 -81v-669h-500v669l-51 81z" />
<glyph unicode="z" d="M0 0l696 1100h-696v400h1550l-695 -1100h695v-400h-1550z" />
<glyph unicode="{" horiz-adv-x="1637" d="M0 744q0 248 178 463q82 99 194 169q-198 -231 -223 -385q-10 -64 -11 -154v-5q0 -154 113 -248q64 -52 136 -67q21 -4 39 -4q98 0 161.5 66.5t63.5 164.5q0 200 -58 304q-39 72 -128 161l93 93l139 -186v93l-93 139l140 139l140 -139l-94 -139v-93l140 186l92 -93 l-87 -88q-79 -87 -87 -181q-7 -89 -11 -196v-13q0 -90 51 -153q56 -71 153 -71q34 0 75 14q145 46 208 205q26 66 26 111v9q0 147 -66 281q-51 106 -168 249q158 -103 262 -272q109 -180 109 -360q0 -282 -231 -513t-512 -231t-512.5 231.5t-231.5 512.5z" />
<glyph unicode="|" horiz-adv-x="650" d="M0 -200v1900h500v-1900h-500z" />
<glyph unicode="}" horiz-adv-x="1650" d="M0 750q0 311 219.5 530.5t530.5 219.5t530.5 -219.5t219.5 -530.5t-219.5 -530.5t-530.5 -219.5t-530.5 219.5t-219.5 530.5zM50 750q0 -168 68 -307l42 24q-21 41 -35 83l47 15q-27 87 -27 185t27 185l-47 15q14 42 35 83l-42 24q-68 -139 -68 -307zM169 357 q37 -53 86 -102q187 -187 445 -203v49q-47 3 -91 12l10 49q-169 34 -298 164q-11 10 -21 21l-38 -34q-28 32 -52 68zM169 1143l41 -24q24 36 52 68l38 -34q10 11 21 22q129 129 298 163l-10 49q44 9 91 12v49q-258 -16 -445 -203q-49 -49 -86 -102zM283 581q15 -41 38 -81 t51 -74l153 130q8 -9 17 -18q68 -68 158 -84l-36 -197q44 -7 90 -7t90 7l-36 197q90 16 158 84q9 9 17 18l153 -130q28 34 51 74t38 81l-188 67q17 48 17 102t-17 102l188 67q-15 41 -38 81t-51 74l-153 -130q-8 9 -17 18q-68 68 -158 84l36 197q-44 7 -90 7t-90 -7l36 -197 q-90 -16 -158 -84q-9 -9 -17 -18l-153 130q-28 -34 -51 -74t-38 -81l188 -67q-17 -48 -17 -102t17 -102zM800 52q258 16 445 203q49 49 86 102l-48 28q-26 -38 -55 -72l-38 34q-10 -11 -20 -21q-130 -130 -299 -164l10 -49q-39 -8 -81 -11v-50zM800 1398q42 -3 81 -11 l-10 -49q169 -34 299 -163l20 -22l38 34q29 -34 55 -72l48 28q-37 53 -86 102q-187 187 -445 203v-50zM1318 565l47 -15q-14 -40 -32 -78l49 -29q68 139 68 307t-68 307l-49 -29q18 -38 32 -78l-47 -15q27 -87 27 -185t-27 -185z" />
<glyph unicode="~" horiz-adv-x="1800" d="M0 1650q0 228 175.5 389t424.5 161q194 0 344 -98q65 -52 106 -52t70.5 44t29.5 106h500q0 -228 -175.5 -389t-424.5 -161q-194 0 -343 98q-66 52 -107 52t-70.5 -44t-29.5 -106h-500z" />
<glyph unicode="&#xa1;" horiz-adv-x="650" d="M0 0v950h500v-950h-500zM0 1100v400h500v-400h-500z" />
<glyph unicode="&#xa2;" horiz-adv-x="1500" d="M0 750q0 311 227 531q102 98 223 152v267h500v-200h399v-400h-574q-114 0 -194.5 -102.5t-80.5 -247.5t80.5 -247.5t194.5 -102.5h575v-400h-400v-200h-500v267q-121 54 -223 153q-227 219 -227 530z" />
<glyph unicode="&#xa3;" horiz-adv-x="1550" d="M0 0v400h200v200h-200v300h214q43 216 213 381q227 219 548 219l225 1v-400l-225 -1q-114 0 -194 -102q-36 -45 -55 -98h174v-300h-200v-200h700v-400h-1400z" />
<glyph unicode="&#xa4;" d="M0 0l278 440q-103 135 -103 310t103 310l-278 440h601l127 -201q23 1 47 1t47 -1l127 201h601l-278 -440q103 -135 103 -310t-103 -310l278 -440l-601 -1l-128 202q-23 -1 -46 -1t-46 1l-128 -202zM675 750q0 -62 29.5 -106t70.5 -44t70.5 44t29.5 106t-29.5 106 t-70.5 44t-70.5 -44t-29.5 -106z" />
<glyph unicode="&#xa5;" d="M0 1500h601l174 -275l174 275h601l-316 -500h216v-300h-405l-20 -31v-169h425v-300h-425v-200h-500v200h-425v300h425v169l-20 31h-405v300h216z" />
<glyph unicode="&#xa6;" horiz-adv-x="650" d="M0 -200v800h500v-800h-500zM0 900v800h500v-800h-500z" />
<glyph unicode="&#xa7;" d="M0 -200v400h750q-233 8 -399 161q-153 140 -173 330q-24 19 -46 41q-132 132 -132 318v200q0 186 132 318t318 132h1100v-400h-750q233 -8 400 -161q152 -140 172 -330q24 -19 46 -41q132 -132 132 -318v-200q0 -186 -132 -318t-318 -132h-1100zM511 1246q110 49 239 54 h-150q-41 0 -70 -29q-12 -12 -19 -25zM675 750q0 -62 29.5 -106t70.5 -44t70.5 44t29.5 106t-29.5 106t-70.5 44t-70.5 -44t-29.5 -106zM800 200h150q41 0 71 30q11 11 18 24q-110 -49 -239 -54z" />
<glyph unicode="&#xa8;" horiz-adv-x="1450" d="M0 1650v400h500v-400h-500zM800 1650v400h500v-400h-500z" />
<glyph unicode="&#xa9;" horiz-adv-x="1250" d="M0 1125q0 238 161 406.5t389 168.5t389 -168.5t161 -406.5t-161 -406.5t-389 -168.5t-389 168.5t-161 406.5zM100 1125q0 -197 132 -336t318 -139q158 0 277 100h-264q-161 0 -274.5 110t-113.5 265q0 156 113.5 265.5t274.5 109.5h264q-119 100 -277 100 q-186 0 -318 -139t-132 -336zM425 1125q0 -72 40.5 -123.5t97.5 -51.5h287v-179l18 18q132 139 132 336t-132 336l-18 18v-179h-287q-57 0 -97.5 -51t-40.5 -124z" />
<glyph unicode="&#xaa;" horiz-adv-x="1650" d="M0 200v1100q0 200 200 200h1100q200 0 200 -200v-1100q0 -200 -200 -200h-1100q-200 0 -200 200zM25 200q1 -175 175 -175h1101q174 0 174 176v1099q0 175 -175 175h-1100q-174 0 -175 -175v-1100z" />
<glyph unicode="&#xab;" horiz-adv-x="2000" d="M0 751l499 750h601l-498 -750l498 -750l-601 -1zM750 751l499 750h601l-498 -750l498 -750l-601 -1z" />
<glyph unicode="&#xac;" horiz-adv-x="1014" d="M87 667v100h840v-491l-1 -1h-98v392h-741z" />
<glyph unicode="&#xad;" horiz-adv-x="1500" d="M0 600v300h1350v-300h-1350z" />
<glyph unicode="&#xae;" horiz-adv-x="1250" d="M0 1125q0 238 161 406.5t389 168.5t389 -168.5t161 -406.5q0 -210 -125 -365v-10h-8q-13 -16 -28 -31q-161 -169 -389 -169t-389 168.5t-161 406.5zM100 1125q0 -148 75 -264v528q-75 -116 -75 -264zM273 750q119 -100 277 -100t278 101h-15q-161 0 -274 110 q-43 41 -70 89h-44v-200h-152zM273 1500h402q114 0 194.5 -80.5t80.5 -194.5t-80 -194q-49 -49 -109 -68q24 -12 52 -12l157 -1q30 81 30 175q0 197 -132 336t-318 139q-158 0 -277 -100zM425 1150h200q31 0 53 22t22 53t-22 53t-53 22h-200v-150z" />
<glyph unicode="&#xaf;" horiz-adv-x="1650" d="M0 200v1100q0 200 200 200h1100q200 0 200 -200v-1100q0 -200 -200 -200h-1100q-200 0 -200 200zM25 200q1 -175 175 -175h1101q174 0 174 176v1099q0 175 -175 175h-1100q-174 0 -175 -175v-1100z" />
<glyph unicode="&#xb0;" horiz-adv-x="674" d="M60 1164q0 116 81.5 197t197.5 81q115 0 196 -81.5t81 -196.5q0 -114 -82 -196t-197 -82q-117 0 -197 81t-80 197zM130 1163q0 -87 61 -147t148 -60t147 60t60 147t-60.5 148t-146.5 61t-147.5 -61t-61.5 -148z" />
<glyph unicode="&#xb1;" horiz-adv-x="1650" d="M0 200v1100q0 200 200 200h1100q200 0 200 -200v-1100q0 -200 -200 -200h-1100q-200 0 -200 200zM25 200q1 -175 175 -175h1101q174 0 174 176v1099q0 175 -175 175h-1100q-174 0 -175 -175v-1100z" />
<glyph unicode="&#xb2;" horiz-adv-x="1650" d="M0 200v1100q0 200 200 200h1100q200 0 200 -200v-1100q0 -200 -200 -200h-1100q-200 0 -200 200zM25 200q1 -175 175 -175h1101q174 0 174 176v1099q0 175 -175 175h-1100q-174 0 -175 -175v-1100z" />
<glyph unicode="&#xb3;" horiz-adv-x="1650" d="M0 200v1100q0 200 200 200h1100q200 0 200 -200v-1100q0 -200 -200 -200h-1100q-200 0 -200 200zM25 200q1 -175 175 -175h1101q174 0 174 176v1099q0 175 -175 175h-1100q-174 0 -175 -175v-1100z" />
<glyph unicode="&#xb4;" horiz-adv-x="1450" d="M0 1650l500 600h800l-800 -600h-500z" />
<glyph unicode="&#xb5;" d="M0 0v1501l500 -1v-751q0 -145 81 -246q80 -103 194 -103t194.5 102.5t80.5 247.5l-1 750h501v-750q0 -311 -227 -530.5t-548 -219.5q-147 0 -275 46v-46h-500z" />
<glyph unicode="&#xb6;" horiz-adv-x="1024" d="M93 1086q0 157 107.5 253t285.5 96h443v-70h-127v-1365h-82v1365h-166v-1365h-84v738q-174 8 -275.5 102.5t-101.5 245.5z" />
<glyph unicode="&#xb7;" horiz-adv-x="650" d="M0 550v400h500v-400h-500z" />
<glyph unicode="&#xb8;" horiz-adv-x="1150" d="M0 -100l225 1q114 0 194.5 102.5t80.5 247.5v148l500 1v-149q0 -311 -227 -530.5t-548 -219.5l-225 -1v400z" />
<glyph unicode="&#xb9;" horiz-adv-x="1650" d="M0 200v1100q0 200 200 200h1100q200 0 200 -200v-1100q0 -200 -200 -200h-1100q-200 0 -200 200zM25 200q1 -175 175 -175h1101q174 0 174 176v1099q0 175 -175 175h-1100q-174 0 -175 -175v-1100z" />
<glyph unicode="&#xba;" horiz-adv-x="1650" d="M0 200v1100q0 200 200 200h1100q200 0 200 -200v-1100q0 -200 -200 -200h-1100q-200 0 -200 200zM25 200q1 -175 175 -175h1101q174 0 174 176v1099q0 175 -175 175h-1100q-174 0 -175 -175v-1100z" />
<glyph unicode="&#xbb;" horiz-adv-x="2000" d="M0 1l498 750l-498 750h601l499 -750l-499 -751zM750 1l498 750l-498 750h601l499 -750l-499 -751z" />
<glyph unicode="&#xbc;" horiz-adv-x="1650" d="M0 200v1100q0 200 200 200h1100q200 0 200 -200v-1100q0 -200 -200 -200h-1100q-200 0 -200 200zM25 200q1 -175 175 -175h1101q174 0 174 176v1099q0 175 -175 175h-1100q-174 0 -175 -175v-1100z" />
<glyph unicode="&#xbd;" horiz-adv-x="1650" d="M0 200v1100q0 200 200 200h1100q200 0 200 -200v-1100q0 -200 -200 -200h-1100q-200 0 -200 200zM25 200q1 -175 175 -175h1101q174 0 174 176v1099q0 175 -175 175h-1100q-174 0 -175 -175v-1100z" />
<glyph unicode="&#xbe;" horiz-adv-x="1650" d="M0 200v1100q0 200 200 200h1100q200 0 200 -200v-1100q0 -200 -200 -200h-1100q-200 0 -200 200zM25 200q1 -175 175 -175h1101q174 0 174 176v1099q0 175 -175 175h-1100q-174 0 -175 -175v-1100z" />
<glyph unicode="&#xbf;" horiz-adv-x="1600" d="M0 450q0 186 132 318t318 132h200q50 0 50 50h500v-50q0 -150 -107 -225t-293 -75h-200q-41 0 -70.5 -29.5t-29.5 -70.5t29.5 -70.5t70.5 -29.5h850v-400h-1000q-186 0 -318 132t-132 318zM700 1100v400h500v-400h-500z" />
<glyph unicode="&#xc0;" d="M0 0l400 1500h750l400 -1500h-525l-80 300h-340l-80 -300h-525zM125 2250h800l500 -600h-500zM685 600h180l-90 338z" />
<glyph unicode="&#xc1;" d="M0 0l400 1500h750l400 -1500h-525l-80 300h-340l-80 -300h-525zM125 1650l500 600h800l-800 -600h-500zM685 600h180l-90 338z" />
<glyph unicode="&#xc2;" d="M0 0l400 1500h750l400 -1500h-525l-80 300h-340l-80 -300h-525zM125 1650l350 600h600l350 -600h-500l-150 257l-150 -257h-500zM685 600h180l-90 338z" />
<glyph unicode="&#xc3;" d="M-50 1650q0 228 175.5 389t424.5 161q194 0 344 -98q65 -52 106 -52t70.5 44t29.5 106h500q0 -228 -175.5 -389t-424.5 -161q-194 0 -343 98q-66 52 -107 52t-70.5 -44t-29.5 -106h-500zM0 0l400 1500h750l400 -1500h-525l-80 300h-340l-80 -300h-525zM685 600h180 l-90 338z" />
<glyph unicode="&#xc4;" d="M0 0l400 1500h750l400 -1500h-525l-80 300h-340l-80 -300h-525zM125 1650v400h500v-400h-500zM685 600h180l-90 338zM925 1650v400h500v-400h-500z" />
<glyph unicode="&#xc5;" d="M0 0l400 1500h750l400 -1500h-525l-80 300h-340l-80 -300h-525zM400 2050q0 145 110 247.5t265 102.5t265 -102.5t110 -247.5t-110 -247.5t-265 -102.5t-265 102.5t-110 247.5zM685 600h180l-90 338z" />
<glyph unicode="&#xc6;" horiz-adv-x="2700" d="M0 0l400 1500h2150v-400h-1050v-200h600v-300h-600v-200h1050v-400h-1550v94l-55 206h-340l-80 -300h-525zM685 600h180l-90 338z" />
<glyph unicode="&#xc7;" horiz-adv-x="1500" d="M0 750q0 311 227 530.5t548 219.5h574v-400h-574q-114 0 -194.5 -102.5t-80.5 -247.5t80.5 -247.5t194.5 -102.5h725v-400h-192q-56 -155 -185 -279q-227 -220 -548 -220l-225 -1v400l225 1q112 0 192 99q-316 3 -540 220q-227 219 -227 530z" />
<glyph unicode="&#xc8;" d="M0 0v1500h1550v-400h-1050v-200h600v-300h-600v-200h1200v-400h-1700zM125 2250h800l500 -600h-500z" />
<glyph unicode="&#xc9;" d="M0 0v1500h1550v-400h-1050v-200h600v-300h-600v-200h1200v-400h-1700zM125 1650l500 600h800l-800 -600h-500z" />
<glyph unicode="&#xca;" d="M0 0v1500h1550v-400h-1050v-200h600v-300h-600v-200h1200v-400h-1700zM125 1650l350 600h600l350 -600h-500l-150 257l-150 -257h-500z" />
<glyph unicode="&#xcb;" d="M0 0v1500h1550v-400h-1050v-200h600v-300h-600v-200h1200v-400h-1700zM125 1650v400h500v-400h-500zM925 1650v400h500v-400h-500z" />
<glyph unicode="&#xcc;" horiz-adv-x="1450" d="M0 0v400h400v700h-400v400h1300v-400h-400v-700h400v-400h-1300zM0 2250h800l500 -600h-500z" />
<glyph unicode="&#xcd;" horiz-adv-x="1450" d="M0 0v400h400v700h-400v400h1300v-400h-400v-700h400v-400h-1300zM0 1650l500 600h800l-800 -600h-500z" />
<glyph unicode="&#xce;" horiz-adv-x="1450" d="M0 0v400h400v700h-400v400h1300v-400h-400v-700h400v-400h-1300zM0 1650l350 600h600l350 -600h-500l-150 257l-150 -257h-500z" />
<glyph unicode="&#xcf;" horiz-adv-x="1450" d="M0 0v400h400v700h-400v400h1300v-400h-400v-700h400v-400h-1300zM0 1650v400h500v-400h-500zM800 1650v400h500v-400h-500z" />
<glyph unicode="&#xd0;" horiz-adv-x="1850" d="M0 600v300h151v600h774q321 0 548 -219.5t227 -530.5t-227 -530.5t-548 -219.5h-775v600h-150zM650 400h275q114 0 194.5 102.5t80.5 247.5t-80.5 247.5t-194.5 102.5h-275v-200h300v-300h-300v-200z" />
<glyph unicode="&#xd1;" d="M-50 1650q0 228 175.5 389t424.5 161q194 0 344 -98q65 -52 106 -52t70.5 44t29.5 106h500q0 -228 -175.5 -389t-424.5 -161q-194 0 -343 98q-66 52 -107 52t-70.5 -44t-29.5 -106h-500zM0 0v1500h600l450 -750v750h500v-1500h-600l-450 750v-750h-500z" />
<glyph unicode="&#xd2;" d="M0 750q0 311 227 530.5t548 219.5t548 -219.5t227 -530.5t-227 -530.5t-548 -219.5t-548 219.5t-227 530.5zM125 2250h800l500 -600h-500zM500 750q0 -145 80.5 -247.5t194.5 -102.5t194.5 102.5t80.5 247.5t-80.5 247.5t-194.5 102.5t-194.5 -102.5t-80.5 -247.5z" />
<glyph unicode="&#xd3;" d="M0 750q0 311 227 530.5t548 219.5t548 -219.5t227 -530.5t-227 -530.5t-548 -219.5t-548 219.5t-227 530.5zM125 1650l500 600h800l-800 -600h-500zM500 750q0 -145 80.5 -247.5t194.5 -102.5t194.5 102.5t80.5 247.5t-80.5 247.5t-194.5 102.5t-194.5 -102.5 t-80.5 -247.5z" />
<glyph unicode="&#xd4;" d="M0 750q0 311 227 530.5t548 219.5t548 -219.5t227 -530.5t-227 -530.5t-548 -219.5t-548 219.5t-227 530.5zM125 1650l350 600h600l350 -600h-500l-150 257l-150 -257h-500zM500 750q0 -145 80.5 -247.5t194.5 -102.5t194.5 102.5t80.5 247.5t-80.5 247.5t-194.5 102.5 t-194.5 -102.5t-80.5 -247.5z" />
<glyph unicode="&#xd5;" d="M-50 1650q0 228 175.5 389t424.5 161q194 0 344 -98q65 -52 106 -52t70.5 44t29.5 106h500q0 -228 -175.5 -389t-424.5 -161q-194 0 -343 98q-66 52 -107 52t-70.5 -44t-29.5 -106h-500zM0 750q0 311 227 530.5t548 219.5t548 -219.5t227 -530.5t-227 -530.5t-548 -219.5 t-548 219.5t-227 530.5zM500 750q0 -145 80.5 -247.5t194.5 -102.5t194.5 102.5t80.5 247.5t-80.5 247.5t-194.5 102.5t-194.5 -102.5t-80.5 -247.5z" />
<glyph unicode="&#xd6;" d="M0 750q0 311 227 530.5t548 219.5t548 -219.5t227 -530.5t-227 -530.5t-548 -219.5t-548 219.5t-227 530.5zM125 1650v400h500v-400h-500zM500 750q0 -145 80.5 -247.5t194.5 -102.5t194.5 102.5t80.5 247.5t-80.5 247.5t-194.5 102.5t-194.5 -102.5t-80.5 -247.5z M925 1650v400h500v-400h-500z" />
<glyph unicode="&#xd7;" horiz-adv-x="1400" d="M0 200l350 525l-350 525h550l75 -112l75 112h550l-350 -525l350 -525h-550l-75 113l-75 -113h-550z" />
<glyph unicode="&#xd8;" d="M0 750q0 311 227 530.5t548 219.5q86 0 166 -16l9 16h550l-149 -248q199 -211 199 -502q0 -311 -227 -530.5t-548 -219.5q-86 0 -166 16l-9 -16h-550l149 248q-199 211 -199 502zM500 750q0 -145 80.5 -247.5t194.5 -102.5t194.5 102.5t80.5 247.5t-80.5 247.5 t-194.5 102.5t-194.5 -102.5t-80.5 -247.5z" />
<glyph unicode="&#xd9;" d="M0 750v751l500 -1v-750q0 -145 80.5 -247.5t194.5 -102.5t194.5 102.5t80.5 247.5l-1 750h501v-750q0 -311 -227 -530.5t-548 -219.5t-548 219.5t-227 530.5zM125 2250h800l500 -600h-500z" />
<glyph unicode="&#xda;" d="M0 750v751l500 -1v-750q0 -145 80.5 -247.5t194.5 -102.5t194.5 102.5t80.5 247.5l-1 750h501v-750q0 -311 -227 -530.5t-548 -219.5t-548 219.5t-227 530.5zM125 1650l500 600h800l-800 -600h-500z" />
<glyph unicode="&#xdb;" d="M0 750v751l500 -1v-750q0 -145 80.5 -247.5t194.5 -102.5t194.5 102.5t80.5 247.5l-1 750h501v-750q0 -311 -227 -530.5t-548 -219.5t-548 219.5t-227 530.5zM125 1650l350 600h600l350 -600h-500l-150 257l-150 -257h-500z" />
<glyph unicode="&#xdc;" d="M0 750v751l500 -1v-750q0 -145 80.5 -247.5t194.5 -102.5t194.5 102.5t80.5 247.5l-1 750h501v-750q0 -311 -227 -530.5t-548 -219.5t-548 219.5t-227 530.5zM125 1650v400h500v-400h-500zM925 1650v400h500v-400h-500z" />
<glyph unicode="&#xdd;" d="M0 1500h601l174 -275l174 275h601l-474 -750l-51 -81v-669h-500v669l-51 81zM125 1650l500 600h800l-800 -600h-500z" />
<glyph unicode="&#xde;" d="M0 0v1500h500v-200h500q228 0 389 -161t161 -389t-161 -389t-389 -161h-500v-200h-500zM500 600h400q62 0 106 44t44 106t-44 106t-106 44h-400v-300z" />
<glyph unicode="&#xdf;" d="M0 0q0 1076 2 1100h-2l3 2q16 153 129 266q132 132 318 132h650q186 0 318 -132q113 -113 129 -266l3 -2h-2q2 -24 2 -50q0 -173 -115 -300q115 -127 115 -300q0 -26 -2 -50h2l-3 -2q-16 -153 -129 -266q-132 -132 -318 -132h-400v400h250q41 0 70.5 29.5t29.5 70.5 t-29.5 70.5t-70.5 29.5h-250v300h250q41 0 70.5 29.5t29.5 70.5t-29.5 70.5t-70.5 29.5h-350q-41 0 -70.5 -29.5t-29.5 -70.5v-1000h-500z" />
<glyph unicode="&#xe0;" d="M0 0l400 1500h750l400 -1500h-525l-80 300h-340l-80 -300h-525zM125 2250h800l500 -600h-500zM685 600h180l-90 338z" />
<glyph unicode="&#xe1;" d="M0 0l400 1500h750l400 -1500h-525l-80 300h-340l-80 -300h-525zM125 1650l500 600h800l-800 -600h-500zM685 600h180l-90 338z" />
<glyph unicode="&#xe2;" d="M0 0l400 1500h750l400 -1500h-525l-80 300h-340l-80 -300h-525zM125 1650l350 600h600l350 -600h-500l-150 257l-150 -257h-500zM685 600h180l-90 338z" />
<glyph unicode="&#xe3;" d="M-50 1650q0 228 175.5 389t424.5 161q194 0 344 -98q65 -52 106 -52t70.5 44t29.5 106h500q0 -228 -175.5 -389t-424.5 -161q-194 0 -343 98q-66 52 -107 52t-70.5 -44t-29.5 -106h-500zM0 0l400 1500h750l400 -1500h-525l-80 300h-340l-80 -300h-525zM685 600h180 l-90 338z" />
<glyph unicode="&#xe4;" d="M0 0l400 1500h750l400 -1500h-525l-80 300h-340l-80 -300h-525zM125 1650v400h500v-400h-500zM685 600h180l-90 338zM925 1650v400h500v-400h-500z" />
<glyph unicode="&#xe5;" d="M0 0l400 1500h750l400 -1500h-525l-80 300h-340l-80 -300h-525zM400 2050q0 145 110 247.5t265 102.5t265 -102.5t110 -247.5t-110 -247.5t-265 -102.5t-265 102.5t-110 247.5zM685 600h180l-90 338z" />
<glyph unicode="&#xe6;" horiz-adv-x="2700" d="M0 0l400 1500h2150v-400h-1050v-200h600v-300h-600v-200h1050v-400h-1550v94l-55 206h-340l-80 -300h-525zM685 600h180l-90 338z" />
<glyph unicode="&#xe7;" horiz-adv-x="1500" d="M0 750q0 311 227 530.5t548 219.5h574v-400h-574q-114 0 -194.5 -102.5t-80.5 -247.5t80.5 -247.5t194.5 -102.5h575v-149q0 -311 -227 -530.5t-548 -219.5l-225 -1v400l225 1q112 0 192 99q-316 3 -540 220q-227 219 -227 530z" />
<glyph unicode="&#xe8;" d="M0 0v1500h1550v-400h-1050v-200h600v-300h-600v-200h1050v-400h-1550zM125 2250h800l500 -600h-500z" />
<glyph unicode="&#xe9;" d="M0 0v1500h1550v-400h-1050v-200h600v-300h-600v-200h1050v-400h-1550zM125 1650l500 600h800l-800 -600h-500z" />
<glyph unicode="&#xea;" d="M0 0v1500h1550v-400h-1050v-200h600v-300h-600v-200h1050v-400h-1550zM125 1650l350 600h600l350 -600h-500l-150 257l-150 -257h-500z" />
<glyph unicode="&#xeb;" d="M0 0v1500h1550v-400h-1050v-200h600v-300h-600v-200h1050v-400h-1550zM125 1650v400h500v-400h-500zM925 1650v400h500v-400h-500z" />
<glyph unicode="&#xec;" horiz-adv-x="1450" d="M0 0v400h400v700h-400v400h1300v-400h-400v-700h400v-400h-1300zM0 2250h800l500 -600h-500z" />
<glyph unicode="&#xed;" horiz-adv-x="1450" d="M0 0v400h400v700h-400v400h1300v-400h-400v-700h400v-400h-1300zM0 1650l500 600h800l-800 -600h-500z" />
<glyph unicode="&#xee;" horiz-adv-x="1450" d="M0 0v400h400v700h-400v400h1300v-400h-400v-700h400v-400h-1300zM0 1650l350 600h600l350 -600h-500l-150 257l-150 -257h-500z" />
<glyph unicode="&#xef;" horiz-adv-x="1450" d="M0 0v400h400v700h-400v400h1300v-400h-400v-700h400v-400h-1300zM0 1650v400h500v-400h-500zM800 1650v400h500v-400h-500z" />
<glyph unicode="&#xf0;" horiz-adv-x="1850" d="M0 600v300h151v600h774q321 0 548 -219.5t227 -530.5t-227 -530.5t-548 -219.5h-775v600h-150zM650 400h275q114 0 194.5 102.5t80.5 247.5t-80.5 247.5t-194.5 102.5h-275v-200h300v-300h-300v-200z" />
<glyph unicode="&#xf1;" d="M-50 1650q0 228 175.5 389t424.5 161q194 0 344 -98q65 -52 106 -52t70.5 44t29.5 106h500q0 -228 -175.5 -389t-424.5 -161q-194 0 -343 98q-66 52 -107 52t-70.5 -44t-29.5 -106h-500zM0 0v1500h600l450 -750v750h500v-1500h-600l-450 750v-750h-500z" />
<glyph unicode="&#xf2;" d="M0 750q0 311 227 530.5t548 219.5t548 -219.5t227 -530.5t-227 -530.5t-548 -219.5t-548 219.5t-227 530.5zM125 2250h800l500 -600h-500zM500 750q0 -145 80.5 -247.5t194.5 -102.5t194.5 102.5t80.5 247.5t-80.5 247.5t-194.5 102.5t-194.5 -102.5t-80.5 -247.5z" />
<glyph unicode="&#xf3;" d="M0 750q0 311 227 530.5t548 219.5t548 -219.5t227 -530.5t-227 -530.5t-548 -219.5t-548 219.5t-227 530.5zM125 1650l500 600h800l-800 -600h-500zM500 750q0 -145 80.5 -247.5t194.5 -102.5t194.5 102.5t80.5 247.5t-80.5 247.5t-194.5 102.5t-194.5 -102.5 t-80.5 -247.5z" />
<glyph unicode="&#xf4;" d="M0 750q0 311 227 530.5t548 219.5t548 -219.5t227 -530.5t-227 -530.5t-548 -219.5t-548 219.5t-227 530.5zM125 1650l350 600h600l350 -600h-500l-150 257l-150 -257h-500zM500 750q0 -145 80.5 -247.5t194.5 -102.5t194.5 102.5t80.5 247.5t-80.5 247.5t-194.5 102.5 t-194.5 -102.5t-80.5 -247.5z" />
<glyph unicode="&#xf5;" d="M-50 1650q0 228 175.5 389t424.5 161q194 0 344 -98q65 -52 106 -52t70.5 44t29.5 106h500q0 -228 -175.5 -389t-424.5 -161q-194 0 -343 98q-66 52 -107 52t-70.5 -44t-29.5 -106h-500zM0 750q0 311 227 530.5t548 219.5t548 -219.5t227 -530.5t-227 -530.5t-548 -219.5 t-548 219.5t-227 530.5zM500 750q0 -145 80.5 -247.5t194.5 -102.5t194.5 102.5t80.5 247.5t-80.5 247.5t-194.5 102.5t-194.5 -102.5t-80.5 -247.5z" />
<glyph unicode="&#xf6;" d="M0 750q0 311 227 530.5t548 219.5t548 -219.5t227 -530.5t-227 -530.5t-548 -219.5t-548 219.5t-227 530.5zM125 1650v400h500v-400h-500zM500 750q0 -145 80.5 -247.5t194.5 -102.5t194.5 102.5t80.5 247.5t-80.5 247.5t-194.5 102.5t-194.5 -102.5t-80.5 -247.5z M925 1650v400h500v-400h-500z" />
<glyph unicode="&#xf7;" horiz-adv-x="1500" d="M0 600v300h1350v-300h-1350zM425 50v400h500v-400h-500zM425 1050v400h500v-400h-500z" />
<glyph unicode="&#xf8;" d="M0 750q0 311 227 530.5t548 219.5q86 0 166 -16l9 16h550l-149 -248q199 -211 199 -502q0 -311 -227 -530.5t-548 -219.5q-86 0 -166 16l-9 -16h-550l149 248q-199 211 -199 502zM500 750q0 -145 80.5 -247.5t194.5 -102.5t194.5 102.5t80.5 247.5t-80.5 247.5 t-194.5 102.5t-194.5 -102.5t-80.5 -247.5z" />
<glyph unicode="&#xf9;" d="M0 750v751l500 -1v-750q0 -145 80.5 -247.5t194.5 -102.5t194.5 102.5t80.5 247.5l-1 750h501v-750q0 -311 -227 -530.5t-548 -219.5t-548 219.5t-227 530.5zM125 2250h800l500 -600h-500z" />
<glyph unicode="&#xfa;" d="M0 750v751l500 -1v-750q0 -145 80.5 -247.5t194.5 -102.5t194.5 102.5t80.5 247.5l-1 750h501v-750q0 -311 -227 -530.5t-548 -219.5t-548 219.5t-227 530.5zM125 1650l500 600h800l-800 -600h-500z" />
<glyph unicode="&#xfb;" d="M0 750v751l500 -1v-750q0 -145 80.5 -247.5t194.5 -102.5t194.5 102.5t80.5 247.5l-1 750h501v-750q0 -311 -227 -530.5t-548 -219.5t-548 219.5t-227 530.5zM125 1650l350 600h600l350 -600h-500l-150 257l-150 -257h-500z" />
<glyph unicode="&#xfc;" d="M0 750v751l500 -1v-750q0 -145 80.5 -247.5t194.5 -102.5t194.5 102.5t80.5 247.5l-1 750h501v-750q0 -311 -227 -530.5t-548 -219.5t-548 219.5t-227 530.5zM125 1650v400h500v-400h-500zM925 1650v400h500v-400h-500z" />
<glyph unicode="&#xfd;" d="M0 1500h601l174 -275l174 275h601l-474 -750l-51 -81v-669h-500v669l-51 81zM125 1650l500 600h800l-800 -600h-500z" />
<glyph unicode="&#xfe;" d="M0 0v1500h500v-200h500q228 0 389 -161t161 -389t-161 -389t-389 -161h-500v-200h-500zM500 600h400q62 0 106 44t44 106t-44 106t-106 44h-400v-300z" />
<glyph unicode="&#xff;" d="M0 1500h601l174 -275l174 275h601l-474 -750l-51 -81v-669h-500v669l-51 81zM125 1650v400h500v-400h-500zM925 1650v400h500v-400h-500z" />
<glyph unicode="&#x2c6;" horiz-adv-x="1450" d="M0 1650l350 600h600l350 -600h-500l-150 257l-150 -257h-500z" />
<glyph unicode="&#x2dc;" horiz-adv-x="1800" d="M0 1650q0 228 175.5 389t424.5 161q194 0 344 -98q65 -52 106 -52t70.5 44t29.5 106h500q0 -228 -175.5 -389t-424.5 -161q-194 0 -343 98q-66 52 -107 52t-70.5 -44t-29.5 -106h-500z" />
<glyph unicode="&#x2000;" horiz-adv-x="1200" />
<glyph unicode="&#x2001;" horiz-adv-x="2400" />
<glyph unicode="&#x2002;" horiz-adv-x="1200" />
<glyph unicode="&#x2003;" horiz-adv-x="2400" />
<glyph unicode="&#x2004;" horiz-adv-x="800" />
<glyph unicode="&#x2005;" horiz-adv-x="600" />
<glyph unicode="&#x2006;" horiz-adv-x="400" />
<glyph unicode="&#x2007;" horiz-adv-x="400" />
<glyph unicode="&#x2008;" horiz-adv-x="300" />
<glyph unicode="&#x2009;" horiz-adv-x="480" />
<glyph unicode="&#x200a;" horiz-adv-x="133" />
<glyph unicode="&#x2010;" horiz-adv-x="1500" d="M0 600v300h1350v-300h-1350z" />
<glyph unicode="&#x2011;" horiz-adv-x="1500" d="M0 600v300h1350v-300h-1350z" />
<glyph unicode="&#x2012;" horiz-adv-x="1500" d="M0 600v300h1350v-300h-1350z" />
<glyph unicode="&#x2013;" horiz-adv-x="1500" d="M0 600v300h1350v-300h-1350z" />
<glyph unicode="&#x2014;" horiz-adv-x="1650" d="M0 600v300h1500v-300h-1500z" />
<glyph unicode="&#x2018;" horiz-adv-x="650" d="M0 1100v400h500v-800q-207 0 -353.5 117t-146.5 283z" />
<glyph unicode="&#x2019;" horiz-adv-x="650" d="M0 700v800h500v-400q0 -166 -146.5 -283t-353.5 -117z" />
<glyph unicode="&#x201a;" horiz-adv-x="650" d="M0 400h500v-400q0 -166 -146.5 -283t-353.5 -117v800z" />
<glyph unicode="&#x201c;" horiz-adv-x="1250" d="M0 1100v400h500v-800q-207 0 -353.5 117t-146.5 283zM600 1100v400h500v-800q-207 0 -353.5 117t-146.5 283z" />
<glyph unicode="&#x201d;" horiz-adv-x="1250" d="M0 700v800h500v-400q0 -166 -146.5 -283t-353.5 -117zM600 700v800h500v-400q0 -166 -146.5 -283t-353.5 -117z" />
<glyph unicode="&#x201e;" horiz-adv-x="1250" d="M0 400h500v-400q0 -166 -146.5 -283t-353.5 -117v800zM600 400h500v-400q0 -166 -146.5 -283t-353.5 -117v800z" />
<glyph unicode="&#x2022;" horiz-adv-x="1024" d="M216 718q0 123 87 209t210 86q122 0 208.5 -86.5t86.5 -208.5t-87.5 -209.5t-209.5 -87.5q-123 0 -209 87t-86 210z" />
<glyph unicode="&#x2026;" horiz-adv-x="1850" d="M0 0v400h500v-400h-500zM600 0v400h500v-400h-500zM1200 0v400h500v-400h-500z" />
<glyph unicode="&#x202f;" horiz-adv-x="480" />
<glyph unicode="&#x2039;" horiz-adv-x="1250" d="M0 751l499 750h601l-498 -750l498 -750l-601 -1z" />
<glyph unicode="&#x203a;" horiz-adv-x="1250" d="M0 1l498 750l-498 750h601l499 -750l-499 -751z" />
<glyph unicode="&#x205f;" horiz-adv-x="600" />
<glyph unicode="&#x20ac;" horiz-adv-x="1500" d="M0 600v300h114q43 216 213 381q227 219 548 219h474v-400h-474q-114 0 -194 -102q-36 -45 -55 -98h724v-300h-724q19 -53 55 -97q80 -103 194 -103h475v-400h-475q-321 0 -548 220q-170 164 -213 380h-114z" />
<glyph unicode="&#x2122;" horiz-adv-x="1825" d="M0 1300v200h750v-200h-250v-550h-250v550h-250zM825 750v750h275l150 -250l150 250h275v-750h-250v309l-175 -309l-175 309v-309h-250z" />
<glyph unicode="&#x25fc;" horiz-adv-x="1500" d="M0 0v1500h1500v-1500h-1500z" />
</font>
</defs>
</svg>
